<svg xmlns="http://www.w3.org/2000/svg" viewBox="0 0 17.44 14.89"><defs><style>.cls-1{fill:none;stroke:#fff;stroke-miterlimit:10;stroke-width:0.75px;}.cls-2{fill:#fff;}</style></defs><g id="圖層_2" data-name="圖層 2"><g id="圖層_2-2" data-name="圖層 2"><path class="cls-1" d="M2.53,9.46l.82,3.25h0L5.17,10a.26.26,0,0,1,.21-.13h7.37c.18,0,.32-.24.32-.53V.91c0-.3-.14-.53-.32-.53H.69C.52.38.38.61.38.91V9.39c0,.3.14.54,1,.55l1.58-.08"/><path class="cls-2" d="M2.72,2.8h8a.38.38,0,0,0,0-.75h-8a.38.38,0,0,0,0,.75Z"/><path class="cls-2" d="M2.72,5.5h8a.38.38,0,0,0,0-.75h-8a.38.38,0,0,0,0,.75Z"/><path class="cls-2" d="M2.72,8.09h8a.38.38,0,0,0,0-.75h-8a.38.38,0,0,0,0,.75Z"/><path class="cls-1" d="M16.73,4.18H13.28v5.3c0,.27-.15.49-.33.49H5a.28.28,0,0,0-.22.12L3.57,12.21c0,.21.05,0,.21,0H11.7a.29.29,0,0,1,.22.11l1.65,1.92,1-2,1.48,0c.86,0,1-.21,1-.47V4.63C17.07,4.38,16.92,4.18,16.73,4.18Z"/></g></g></svg>