<svg xmlns="http://www.w3.org/2000/svg" viewBox="0 0 29 25.56"><defs><style>.cls-1{fill:none;stroke:#fff;stroke-miterlimit:10;}.cls-2{fill:#fff;}</style></defs><g id="圖層_2" data-name="圖層 2"><g id="圖層_2-2" data-name="圖層 2"><path class="cls-1" d="M12.53,15.7a5.33,5.33,0,0,0,1.73-3.9,5.51,5.51,0,0,0-5.6-5.41A5.5,5.5,0,0,0,3.07,11.8a5.29,5.29,0,0,0,2,4.11A9.82,9.82,0,0,0,.52,25.06H17.31C17.31,20.39,15.22,17.18,12.53,15.7Z"/><path class="cls-1" d="M17.34,7.43l.86,2.49h0l1.93-2.08a.32.32,0,0,1,.22-.1h7.81a.38.38,0,0,0,.34-.41V.91A.38.38,0,0,0,28.16.5H15.39a.38.38,0,0,0-.34.41V7.38c0,.23.16.41,1,.42l1.67-.06"/><path class="cls-2" d="M17.4,2.58h9.07a.38.38,0,0,0,0-.75H17.4a.38.38,0,0,0,0,.75Z"/><path class="cls-2" d="M17.38,4.51h9.09a.38.38,0,0,0,0-.75H17.38a.38.38,0,0,0,0,.75Z"/><path class="cls-2" d="M17.38,6.37h9.09a.38.38,0,0,0,0-.75H17.38a.38.38,0,0,0,0,.75Z"/></g></g></svg>